<?xml version="1.0" encoding="UTF-8" standalone="no"?>
<svg
   id="Layer_1"
   data-name="Layer 1"
   viewBox="0 0 2000 2000"
   version="1.1"
   sodipodi:docname="LOGO2.svg"
   inkscape:version="1.4.2 (f4327f4, 2025-05-13)"
   xmlns:inkscape="http://www.inkscape.org/namespaces/inkscape"
   xmlns:sodipodi="http://sodipodi.sourceforge.net/DTD/sodipodi-0.dtd"
   xmlns:xlink="http://www.w3.org/1999/xlink"
   xmlns="http://www.w3.org/2000/svg"
   xmlns:svg="http://www.w3.org/2000/svg">
  <sodipodi:namedview
     id="namedview13"
     pagecolor="#ffffff"
     bordercolor="#000000"
     borderopacity="0.25"
     inkscape:showpageshadow="2"
     inkscape:pageopacity="0.0"
     inkscape:pagecheckerboard="0"
     inkscape:deskcolor="#d1d1d1"
     inkscape:zoom="0.4035"
     inkscape:cx="1000"
     inkscape:cy="1000"
     inkscape:window-width="2560"
     inkscape:window-height="1369"
     inkscape:window-x="1912"
     inkscape:window-y="52"
     inkscape:window-maximized="1"
     inkscape:current-layer="Layer_1" />
  <defs
     id="defs2">
    <style
       id="style1">.cls-1{fill:url(#linear-gradient);}.cls-2{fill:url(#linear-gradient-2);}.cls-3{fill:#242e36;}.cls-4{fill:#478e97;}.cls-5{fill:#f6ad3f;}</style>
    <linearGradient
       id="linear-gradient"
       x1="1054.18"
       y1="1056.97"
       x2="870.45"
       y2="884.97"
       gradientUnits="userSpaceOnUse">
      <stop
         offset="0"
         stop-color="#420f76"
         id="stop1" />
      <stop
         offset="1"
         stop-color="#9423d5"
         id="stop2" />
    </linearGradient>
    <linearGradient
       id="linear-gradient-2"
       x1="1144.45"
       y1="786.51"
       x2="1084.57"
       y2="927.53"
       xlink:href="#linear-gradient"
       gradientTransform="matrix(3.7226637,0,0,3.7226637,-2719.9103,-2364.0674)" />
    <linearGradient
       inkscape:collect="always"
       xlink:href="#linear-gradient"
       id="linearGradient13"
       gradientUnits="userSpaceOnUse"
       x1="1054.18"
       y1="1056.97"
       x2="870.45"
       y2="884.97"
       gradientTransform="matrix(3.7226637,0,0,3.7226637,-2719.9103,-2364.0674)" />
  </defs>
  <path
     class="cls-1"
     d="m 995.64291,1188.2843 a 8.8227125,8.8227125 0 0 0 -4.95114,3.2762 C 932.5067,1286.4884 865.9454,1381.4161 808.28134,1470.2017 L 738.14636,1578.1589 705.75918,1529.4667 547.58316,1292.035 90.700709,573.11423 a 1135.4123,1135.4123 0 0 1 524.262751,1.60075 c 124.96977,200.76326 322.7548,521.54512 380.86556,610.92622 -0.52125,1.7125 -0.52125,2.5315 -0.18611,2.6431 z"
     id="path2"
     style="fill:url(#linearGradient13);stroke-width:3.72268" />
  <path
     class="cls-2"
     d="M 1908.2911,573.11423 1255.0753,1577.154 1000.4079,1961.9656 c -2.53139,3.7226 -9.2323,1.7869 -12.95482,-3.7227 L 742.61359,1586.5721 a 19.841796,19.841796 0 0 1 -4.54168,-8.3015 l 70.13496,-107.9572 c 57.73853,-88.9718 124.29983,-183.7135 182.4105,-278.6413 a 8.8227125,8.8227125 0 0 1 4.95102,-3.2761 c -0.29782,0 -0.26062,-0.9307 0,-2.6432 L 1389.1284,573.67263 v 0 a 1134.8167,1134.8167 0 0 1 519.1627,-0.5584 z"
     id="path3"
     style="fill:url(#linear-gradient-2);stroke-width:3.72268" />
  <path
     class="cls-4"
     d="m 1900.7713,303.77953 a 2.754771,2.754771 0 0 0 3.0525,-3.05259 l -12.0986,-119.12523 a 2.643091,2.643091 0 0 0 -2.7919,-2.41973 c -245.9563,5.36064 -484.393,109.22295 -671.2334,266.76608 a 1.9730117,1.9730117 0 0 1 -2.8666,-0.22336 v 0 a 2.1963714,2.1963714 0 0 1 0,-3.08983 c 143.1366,-138.11081 316.203,-243.57385 508.2181,-293.532 a 3.2014907,3.2014907 0 0 0 2.2337,-4.09494 l -32.499,-104.23459 a 6.626341,6.626341 0 0 0 -9.0462,-4.05768 C 1398.6957,162.5789 1160.9663,391.63438 1011.576,662.8677 a 1.3401588,1.3401588 0 0 0 0.335,1.78687 1.3029321,1.3029321 0 0 0 1.7497,0 c 10.0511,-9.90241 17.6825,-23.71341 29.3717,-34.8442 a 1128.3765,1128.3765 0 0 1 203.2202,-154.89999 c 190.2281,-113.7646 429.6698,-201.09829 654.5187,-171.13085 z"
     id="path10"
     style="stroke-width:3.72268" />
  <path
     class="cls-4"
     d="m 315.9963,36.49229 a 6.738021,6.738021 0 0 0 -9.12051,4.132147 L 274.26526,144.85902 a 3.2014907,3.2014907 0 0 0 2.23359,4.09494 C 469.03499,199.09822 642.54839,305.008 786.05696,443.60277 a 2.1963714,2.1963714 0 0 1 0,3.05259 v 0 a 2.0846915,2.0846915 0 0 1 -2.94079,0 C 595.86622,288.55385 356.75946,184.31926 110.09579,178.80972 a 2.643091,2.643091 0 0 0 -2.75478,2.41973 L 95.09345,300.65249 a 2.7175445,2.7175445 0 0 0 3.127049,3.05258 C 323.665,273.92377 563.77686,361.48081 754.48881,475.61768 a 1138.1299,1138.1299 0 0 1 203.7788,155.42125 c 11.68891,11.16788 19.32028,25.01626 29.4461,35.03018 a 1.3401588,1.3401588 0 0 0 1.74965,0 1.2284789,1.2284789 0 0 0 0.33503,-1.67516 C 840.07288,392.67673 601.78522,162.87672 315.9963,36.49229 Z"
     id="path11"
     style="stroke-width:3.72268" />
  <path
     class="cls-5"
     d="M 815.61489,551.00162 Q 557.59724,375.81306 245.22849,370.93636 a 1391.3455,1391.3455 0 0 0 -232.703698,16.04471 1.7496519,1.7496519 0 0 0 -1.414606,2.08469 l 31.67986,137.73852 a 0.96789251,0.96789251 0 0 0 1.228469,0.74455 C 326.53145,451.90431 632.53431,483.17467 891.74352,619.8709 c 20.95852,11.16803 36.10977,21.18195 59.56255,34.06238 a 0.63285279,0.63285279 0 0 0 0.89337,-0.22338 0.67007943,0.67007943 0 0 0 0,-0.93075 Q 917.76499,620.28037 815.61489,551.00162 Z"
     id="path12"
     style="stroke-width:3.72268" />
  <path
     class="cls-5"
     d="M 1986.6905,386.98107 A 1384.0491,1384.0491 0 0 0 1754.0984,371.1225 q -312.3687,5.02561 -570.4611,180.06523 -102.1125,69.20432 -136.4727,101.51696 a 0.78175934,0.78175934 0 0 0 0,0.96798 0.67007943,0.67007943 0 0 0 0.8934,0 c 23.3038,-12.84319 38.4923,-22.9688 59.5624,-34.02513 259.2092,-136.77066 565.2866,-168.04105 847.837,-92.39652 a 0.96789251,0.96789251 0 0 0 1.1911,-0.74453 l 31.68,-137.73856 a 1.6751987,1.6751987 0 0 0 -1.638,-1.78686 z"
     id="path13"
     style="stroke-width:3.72268" />
</svg>
